# Blender 3.6.5
# www.blender.org
mtllib Tree2.mtl
o Cylinder
v 0.000000 -0.005000 -0.370000
v 0.000000 4.905000 -0.370000
v 0.289278 -0.005000 -0.230691
v 0.289278 4.905000 -0.230691
v 0.360723 -0.005000 0.082333
v 0.360723 4.905000 0.082333
v 0.160537 -0.005000 0.333358
v 0.160537 4.905000 0.333358
v -0.160537 -0.005000 0.333358
v -0.160537 4.905000 0.333358
v -0.360723 -0.005000 0.082333
v -0.360723 4.905000 0.082333
v -0.289278 -0.005000 -0.230691
v -0.289278 4.905000 -0.230691
vn 0.4339 -0.0000 -0.9010
vn 0.9749 -0.0000 -0.2225
vn 0.7818 -0.0000 0.6235
vn -0.0000 -0.0000 1.0000
vn -0.7818 -0.0000 0.6235
vn -0.0000 1.0000 -0.0000
vn -0.9749 -0.0000 -0.2225
vn -0.4339 -0.0000 -0.9010
vn -0.0000 -1.0000 -0.0000
vt 0.500000 1.428457
vt 0.609402 -0.428456
vt 0.500000 -0.428456
vt 0.580316 1.428457
vt 0.461934 -0.428456
vt 0.580316 -0.428456
vt 0.461934 1.428457
vt 0.366998 -0.428456
vt 0.560714 1.428457
vt 0.439287 -0.428456
vt 0.560714 -0.428456
vt 0.366998 1.428457
vt 0.500000 0.633002
vt 0.363578 0.461934
vt 0.560714 0.366998
vt 0.390598 1.428457
vt 0.390598 -0.428456
vt 0.609402 0.580316
vt 0.609402 1.428457
vt 0.439287 1.428457
vt 0.636422 0.461934
vt 0.390598 0.580316
vt 0.439287 0.366998
s 0
usemtl Material.002
f 2/1/1 3/2/1 1/3/1
f 4/4/2 5/5/2 3/6/2
f 6/7/3 7/8/3 5/5/3
f 8/9/4 9/10/4 7/11/4
f 10/12/5 11/5/5 9/8/5
f 2/13/6 12/14/6 8/15/6
f 12/7/7 13/6/7 11/5/7
f 14/16/8 1/3/8 13/17/8
f 3/18/9 7/15/9 11/14/9
f 2/1/1 4/19/1 3/2/1
f 4/4/2 6/7/2 5/5/2
f 6/7/3 8/12/3 7/8/3
f 8/9/4 10/20/4 9/10/4
f 10/12/5 12/7/5 11/5/5
f 6/21/6 4/18/6 2/13/6
f 2/13/6 14/22/6 12/14/6
f 12/14/6 10/23/6 8/15/6
f 8/15/6 6/21/6 2/13/6
f 12/7/7 14/4/7 13/6/7
f 14/16/8 2/1/8 1/3/8
f 13/22/9 1/13/9 3/18/9
f 3/18/9 5/21/9 7/15/9
f 7/15/9 9/23/9 11/14/9
f 11/14/9 13/22/9 3/18/9
o Cone
v 0.000000 4.855893 -2.000000
v 1.414214 4.855893 -1.414214
v 2.000000 4.855893 0.000000
v 1.414214 4.855893 1.414214
v 0.000000 4.855893 2.000000
v -1.414214 4.855893 1.414214
v -2.000000 4.855893 0.000000
v -1.414214 4.855893 -1.414214
v 0.000000 8.855892 0.000000
vn 0.3474 0.4194 -0.8387
vn 0.8387 0.4194 -0.3474
vn 0.8387 0.4194 0.3474
vn 0.3474 0.4194 0.8387
vn -0.3474 0.4194 0.8387
vn -0.8387 0.4194 0.3474
vn -0.0000 -1.0000 -0.0000
vn -0.8387 0.4194 -0.3474
vn -0.3474 0.4194 -0.8387
vt 0.500000 -0.359007
vt 0.500000 1.359007
vt 1.107409 -0.359007
vt -0.107409 -0.359007
vt 1.107409 -0.107409
vt -0.107409 -0.107409
vt -0.107409 1.107409
vt 1.107409 1.107409
vt 1.359007 0.500000
vt -0.359007 0.500000
s 0
usemtl Material.003
f 15/24/10 23/25/10 16/26/10
f 16/26/11 23/25/11 17/24/11
f 17/24/12 23/25/12 18/27/12
f 18/26/13 23/25/13 19/24/13
f 19/24/14 23/25/14 20/27/14
f 20/27/15 23/25/15 21/24/15
f 18/28/16 20/29/16 22/30/16
f 21/24/17 23/25/17 22/26/17
f 22/27/18 23/25/18 15/24/18
f 22/30/16 15/25/16 16/31/16
f 16/31/16 17/32/16 18/28/16
f 18/28/16 19/24/16 20/29/16
f 20/29/16 21/33/16 22/30/16
f 22/30/16 16/31/16 18/28/16
o Cone.001
v 0.000000 8.265892 -1.500000
v 1.060660 8.265892 -1.060660
v 1.500000 8.265892 0.000000
v 1.060660 8.265892 1.060660
v 0.000000 8.265892 1.500000
v -1.060660 8.265892 1.060660
v -1.500000 8.265892 0.000000
v -1.060660 8.265892 -1.060660
v 0.000000 11.765892 0.000000
vn 0.3558 0.3681 -0.8590
vn 0.8590 0.3681 -0.3558
vn 0.8590 0.3681 0.3558
vn 0.3558 0.3681 0.8590
vn -0.3558 0.3681 0.8590
vn -0.8590 0.3681 0.3558
vn -0.0000 -1.0000 -0.0000
vn -0.8590 0.3681 -0.3558
vn -0.3558 0.3681 -0.8590
vt 0.500000 -0.359007
vt 0.500000 1.359007
vt 1.107409 -0.359007
vt -0.107409 -0.359007
vt 1.107409 -0.107409
vt -0.107409 -0.107409
vt -0.107409 1.107409
vt 1.107409 1.107409
vt 1.359007 0.500000
vt -0.359007 0.500000
s 0
usemtl Material.005
f 24/34/19 32/35/19 25/36/19
f 25/36/20 32/35/20 26/34/20
f 26/34/21 32/35/21 27/37/21
f 27/36/22 32/35/22 28/34/22
f 28/34/23 32/35/23 29/37/23
f 29/37/24 32/35/24 30/34/24
f 27/38/25 29/39/25 31/40/25
f 30/34/26 32/35/26 31/36/26
f 31/37/27 32/35/27 24/34/27
f 31/40/25 24/35/25 25/41/25
f 25/41/25 26/42/25 27/38/25
f 27/38/25 28/34/25 29/39/25
f 29/39/25 30/43/25 31/40/25
f 31/40/25 25/41/25 27/38/25
o Cone.002
v 0.000000 6.615892 -2.000000
v 1.414214 6.615892 -1.414214
v 2.000000 6.615892 0.000000
v 1.414214 6.615892 1.414214
v 0.000000 6.615892 2.000000
v -1.414214 6.615892 1.414214
v -2.000000 6.615892 0.000000
v -1.414214 6.615892 -1.414214
v 0.000000 10.615892 0.000000
vn 0.3474 0.4194 -0.8387
vn 0.8387 0.4194 -0.3474
vn 0.8387 0.4194 0.3474
vn 0.3474 0.4194 0.8387
vn -0.3474 0.4194 0.8387
vn -0.8387 0.4194 0.3474
vn -0.0000 -1.0000 -0.0000
vn -0.8387 0.4194 -0.3474
vn -0.3474 0.4194 -0.8387
vt 0.500000 -0.359007
vt 0.500000 1.359007
vt 1.107409 -0.359007
vt -0.107409 -0.359007
vt 1.107409 -0.107409
vt -0.107409 -0.107409
vt -0.107409 1.107409
vt 1.107409 1.107409
vt 1.359007 0.500000
vt -0.359007 0.500000
s 0
usemtl Material.004
f 33/44/28 41/45/28 34/46/28
f 34/46/29 41/45/29 35/44/29
f 35/44/30 41/45/30 36/47/30
f 36/46/31 41/45/31 37/44/31
f 37/44/32 41/45/32 38/47/32
f 38/47/33 41/45/33 39/44/33
f 36/48/34 38/49/34 40/50/34
f 39/44/35 41/45/35 40/46/35
f 40/47/36 41/45/36 33/44/36
f 40/50/34 33/45/34 34/51/34
f 34/51/34 35/52/34 36/48/34
f 36/48/34 37/44/34 38/49/34
f 38/49/34 39/53/34 40/50/34
f 40/50/34 34/51/34 36/48/34
o Cylinder.001
v 0.010013 2.857522 -0.184155
v 0.010013 5.139218 -1.152678
v 0.068428 2.868513 -0.158260
v 0.068428 5.150210 -1.126783
v 0.082855 2.893211 -0.100074
v 0.082855 5.174908 -1.068597
v 0.042431 2.913018 -0.053413
v 0.042431 5.194715 -1.021936
v -0.022405 2.913018 -0.053413
v -0.022405 5.194715 -1.021936
v -0.062830 2.893211 -0.100074
v -0.062830 5.174908 -1.068597
v -0.048402 2.868513 -0.158260
v -0.048402 5.150210 -1.126783
vn 0.4339 -0.3520 -0.8293
vn 0.9749 -0.0869 -0.2048
vn 0.7818 0.2436 0.5739
vn -0.0000 0.3907 0.9205
vn -0.7818 0.2436 0.5739
vn -0.0000 0.9205 -0.3907
vn -0.9749 -0.0869 -0.2048
vn -0.4339 -0.3520 -0.8293
vn -0.0000 -0.9205 0.3907
vt 0.500000 1.000000
vt 0.558916 0.000000
vt 0.500000 0.000000
vt 0.543253 1.000000
vt 0.479500 0.000000
vt 0.543253 0.000000
vt 0.479500 1.000000
vt 0.428375 0.000000
vt 0.532696 1.000000
vt 0.467304 0.000000
vt 0.532696 0.000000
vt 0.428375 1.000000
vt 0.500000 0.571625
vt 0.426533 0.479500
vt 0.532696 0.428375
vt 0.441084 1.000000
vt 0.441084 0.000000
vt 0.558916 0.543253
vt 0.558916 1.000000
vt 0.467304 1.000000
vt 0.573467 0.479500
vt 0.441084 0.543253
vt 0.467304 0.428375
s 0
usemtl Material.006
f 43/54/37 44/55/37 42/56/37
f 45/57/38 46/58/38 44/59/38
f 47/60/39 48/61/39 46/58/39
f 49/62/40 50/63/40 48/64/40
f 51/65/41 52/58/41 50/61/41
f 43/66/42 53/67/42 49/68/42
f 53/60/43 54/59/43 52/58/43
f 55/69/44 42/56/44 54/70/44
f 44/71/45 48/68/45 52/67/45
f 43/54/37 45/72/37 44/55/37
f 45/57/38 47/60/38 46/58/38
f 47/60/39 49/65/39 48/61/39
f 49/62/40 51/73/40 50/63/40
f 51/65/41 53/60/41 52/58/41
f 47/74/42 45/71/42 43/66/42
f 43/66/42 55/75/42 53/67/42
f 53/67/42 51/76/42 49/68/42
f 49/68/42 47/74/42 43/66/42
f 53/60/43 55/57/43 54/59/43
f 55/69/44 43/54/44 42/56/44
f 54/75/45 42/66/45 44/71/45
f 44/71/45 46/74/45 48/68/45
f 48/68/45 50/76/45 52/67/45
f 52/67/45 54/75/45 44/71/45
o Cylinder.002
v -0.044985 4.840238 0.707308
v -0.044985 3.998776 0.367336
v 0.013430 4.850776 0.681225
v 0.013430 4.009315 0.341253
v 0.027857 4.874454 0.622618
v 0.027857 4.032993 0.282645
v -0.012567 4.893444 0.575618
v -0.012567 4.051982 0.235646
v -0.077403 4.893444 0.575618
v -0.077403 4.051982 0.235646
v -0.117828 4.874454 0.622618
v -0.117828 4.032993 0.282645
v -0.103400 4.850776 0.681225
v -0.103400 4.009315 0.341253
vn 0.4339 -0.3375 0.8354
vn 0.9749 -0.0834 0.2063
vn 0.7818 0.2336 -0.5781
vn -0.0000 0.3746 -0.9272
vn -0.7818 0.2336 -0.5781
vn -0.0000 -0.9272 -0.3746
vn -0.9749 -0.0834 0.2063
vn -0.4339 -0.3375 0.8354
vn -0.0000 0.9272 0.3746
vt 0.500000 1.000000
vt 0.558916 0.000000
vt 0.500000 0.000000
vt 0.543253 1.000000
vt 0.479500 0.000000
vt 0.543253 0.000000
vt 0.479500 1.000000
vt 0.428375 0.000000
vt 0.532696 1.000000
vt 0.467304 0.000000
vt 0.532696 0.000000
vt 0.428375 1.000000
vt 0.500000 0.571625
vt 0.426533 0.479500
vt 0.532696 0.428375
vt 0.441084 1.000000
vt 0.441084 0.000000
vt 0.558916 0.543253
vt 0.558916 1.000000
vt 0.467304 1.000000
vt 0.573467 0.479500
vt 0.441084 0.543253
vt 0.467304 0.428375
s 0
usemtl Material.007
f 57/77/46 58/78/46 56/79/46
f 59/80/47 60/81/47 58/82/47
f 61/83/48 62/84/48 60/81/48
f 63/85/49 64/86/49 62/87/49
f 65/88/50 66/81/50 64/84/50
f 57/89/51 67/90/51 63/91/51
f 67/83/52 68/82/52 66/81/52
f 69/92/53 56/79/53 68/93/53
f 58/94/54 62/91/54 66/90/54
f 57/77/46 59/95/46 58/78/46
f 59/80/47 61/83/47 60/81/47
f 61/83/48 63/88/48 62/84/48
f 63/85/49 65/96/49 64/86/49
f 65/88/50 67/83/50 66/81/50
f 61/97/51 59/94/51 57/89/51
f 57/89/51 69/98/51 67/90/51
f 67/90/51 65/99/51 63/91/51
f 63/91/51 61/97/51 57/89/51
f 67/83/52 69/80/52 68/82/52
f 69/92/53 57/77/53 56/79/53
f 68/98/54 56/89/54 58/94/54
f 58/94/54 60/97/54 62/91/54
f 62/91/54 64/99/54 66/90/54
f 66/90/54 68/98/54 58/94/54
