# Blender 3.6.5
# www.blender.org
mtllib CircleCube.mtl
o Cube
v -0.604832 -1.016546 1.013734
v -1.019551 -0.603777 1.018161
v -0.910325 -0.934920 0.628657
v -0.656369 0.786410 0.887318
v -0.967957 0.941769 0.585292
v -1.005119 0.580058 1.004755
v -0.688667 -0.762783 -0.135617
v -0.657289 -0.266662 -0.589921
v -0.181611 -0.756828 -0.653629
v -0.503667 0.548708 -0.688975
v -0.782544 0.348273 -0.680570
v -0.897554 0.813825 -0.325907
v 0.984585 -0.993797 0.559281
v 0.762162 -0.643622 0.873662
v 0.555886 -0.996714 0.988348
v -0.130784 0.459724 0.714971
v 0.426409 -0.099785 0.707793
v 0.210357 0.209901 0.183862
v 0.625451 -0.927080 -0.907955
v 0.787413 -0.682429 -0.905603
v 1.009300 -1.005668 -0.611823
v 0.208256 0.179319 -0.169303
v 0.436515 -0.184408 -0.713835
v -0.156078 0.349973 -0.639370
vn 0.3241 0.0866 0.9420
vn 0.8446 0.5340 -0.0401
vn 0.5055 0.8590 -0.0811
vn -0.9884 -0.1256 -0.0859
vn 0.2063 0.2962 -0.9326
vn -0.6513 -0.6584 0.3771
vn -0.2319 0.7467 0.6234
vn -0.6102 -0.5137 -0.6032
vn -0.3818 0.4986 -0.7783
vn 0.6963 -0.1812 0.6945
vn 0.7040 0.6995 0.1232
vn 0.5289 -0.3427 -0.7765
vn 0.6366 0.7374 -0.2257
vn -0.0407 -0.9992 -0.0059
vn 0.0157 0.3006 0.9536
vn 0.5440 0.5334 0.6478
vn 0.3155 0.0069 0.9489
vn 0.0217 0.0111 0.9997
vn 0.0509 0.1824 0.9819
vn 0.8195 0.5730 0.0115
vn 0.8059 0.5894 -0.0558
vn 0.8565 0.5137 -0.0496
vn 0.8491 0.5281 0.0126
vn 0.8323 0.5544 0.0058
vn 0.5032 0.8607 -0.0775
vn 0.5035 0.8601 -0.0819
vn 0.5068 0.8582 -0.0814
vn 0.5079 0.8579 -0.0773
vn 0.5047 0.8597 -0.0784
vn -0.9609 0.0086 -0.2768
vn -0.9968 0.0113 -0.0786
vn -0.9774 -0.2060 -0.0466
vn -0.9184 -0.2341 -0.3191
vn -0.9619 -0.0435 -0.2699
vn -0.3331 -0.2036 -0.9207
vn 0.0654 -0.1325 -0.9890
vn 0.4264 0.5707 -0.7018
vn -0.2605 0.1816 -0.9482
vn -0.2717 -0.0654 -0.9601
vn -0.2838 -0.9145 -0.2883
vn -0.2047 -0.9788 0.0056
vn 0.0173 -0.9998 0.0105
vn 0.0119 -0.9762 -0.2164
vn -0.1904 -0.9518 -0.2404
vt 0.625000 0.820831
vt 0.573123 1.000000
vt 0.375000 0.947531
vt 0.625000 0.587903
vt 0.555014 0.750000
vt 0.375000 0.697798
vt 0.875000 0.559563
vt 0.804169 0.750000
vt 0.625000 0.662097
vt 0.625000 0.059563
vt 0.553769 0.250000
vt 0.375000 0.186524
vt 0.625000 0.334442
vt 0.553991 0.500000
vt 0.375000 0.438349
vt 0.177469 0.750000
vt 0.426877 1.000000
vt 0.375000 0.063476
vt 0.625000 0.929169
vt 0.875000 0.690437
vt 0.573123 0.000000
vt 0.125000 0.563476
vt 0.446231 0.250000
vt 0.375000 0.311651
vt 0.790558 0.500000
vt 0.625000 0.190437
vt 0.444986 0.750000
vt 0.375000 0.802469
vt 0.695831 0.750000
vt 0.625000 0.662097
vt 0.313349 0.500000
vt 0.446009 0.500000
vt 0.375000 0.552202
vt 0.625000 0.587903
vt 0.625000 0.415558
vt 0.322531 0.750000
vt 0.125000 0.686524
vt 0.709442 0.500000
vt 0.426877 0.000000
vt 0.186651 0.500000
s 0
f 16/1/1 6/2/1 1/3/1
f 22/4/2 17/5/2 13/6/2
f 12/7/3 4/8/3 18/9/3
f 5/10/4 11/11/4 7/12/4
f 10/13/5 23/14/5 19/15/5
f 1/16/6 2/17/6 3/18/6
f 4/19/7 5/20/7 6/21/7
f 7/22/8 8/23/8 9/24/8
f 10/25/9 11/11/9 12/26/9
f 13/6/10 14/27/10 15/28/10
f 16/29/11 17/5/11 18/30/11
f 19/31/12 20/32/12 21/33/12
f 22/34/13 23/14/13 24/35/13
f 21/33/14 15/36/14 3/37/14
f 1/3/15 15/28/15 14/27/15
f 14/27/16 17/5/16 16/1/16
f 16/1/17 4/19/17 6/2/17
f 6/2/18 2/17/18 1/3/18
f 1/3/19 14/27/19 16/1/19
f 13/6/20 21/33/20 20/32/20
f 20/32/21 23/14/21 22/4/21
f 22/4/22 18/30/22 17/5/22
f 17/5/23 14/27/23 13/6/23
f 13/6/24 20/32/24 22/4/24
f 18/9/25 22/34/25 24/38/25
f 24/38/26 10/25/26 12/7/26
f 12/7/27 5/20/27 4/8/27
f 4/8/28 16/29/28 18/9/28
f 18/9/29 24/38/29 12/7/29
f 7/12/30 3/18/30 2/39/30
f 2/39/31 6/21/31 5/10/31
f 5/10/32 12/26/32 11/11/32
f 11/11/33 8/23/33 7/12/33
f 7/12/34 2/39/34 5/10/34
f 19/15/35 9/24/35 8/23/35
f 8/23/36 11/11/36 10/13/36
f 10/13/37 24/35/37 23/14/37
f 23/14/38 20/32/38 19/15/38
f 19/15/39 8/23/39 10/13/39
f 3/37/40 7/22/40 9/40/40
f 9/40/41 19/31/41 21/33/41
f 21/33/42 13/6/42 15/36/42
f 15/36/43 1/16/43 3/37/43
f 3/37/44 9/40/44 21/33/44
