# Blender 3.6.5
# www.blender.org
mtllib Campfire.mtl
o Cylinder
v 1.502957 0.075578 -0.354127
v 0.105661 1.533460 -0.354127
v 1.741740 0.304438 -0.159870
v 0.344445 1.762320 -0.159870
v 1.741740 0.304438 0.228643
v 0.344445 1.762320 0.228643
v 1.502957 0.075578 0.422900
v 0.105661 1.533460 0.422900
v 1.264173 -0.153282 0.228643
v -0.133122 1.304601 0.228643
v 1.264173 -0.153282 -0.159870
v -0.133122 1.304601 -0.159870
vn 0.3656 0.3504 -0.8623
vn 0.7219 0.6919 -0.0000
vn 0.3656 0.3504 0.8623
vn -0.3656 -0.3504 0.8623
vn -0.6919 0.7219 -0.0000
vn -0.7219 -0.6919 -0.0000
vn -0.3656 -0.3504 -0.8623
vn 0.6919 -0.7219 -0.0000
vt 0.500000 1.000000
vt 0.933013 0.000000
vt 0.500000 0.000000
vt 0.750000 1.000000
vt 0.250000 0.000000
vt 0.750000 0.000000
vt 0.933013 1.000000
vt 0.066987 0.000000
vt 0.066987 0.250000
vt 0.933013 0.250000
vt 0.250000 1.000000
vt 0.066987 1.000000
vt 0.933013 0.750000
vt 0.066987 0.750000
s 0
f 2/1/1 3/2/1 1/3/1
f 4/4/2 5/5/2 3/6/2
f 6/7/3 7/3/3 5/2/3
f 8/1/4 9/8/4 7/3/4
f 2/1/5 10/9/5 6/10/5
f 10/11/6 11/6/6 9/5/6
f 12/12/7 1/3/7 11/8/7
f 3/13/8 7/3/8 11/14/8
f 2/1/1 4/7/1 3/2/1
f 4/4/2 6/11/2 5/5/2
f 6/7/3 8/1/3 7/3/3
f 8/1/4 10/12/4 9/8/4
f 6/10/5 4/13/5 2/1/5
f 2/1/5 12/14/5 10/9/5
f 10/9/5 8/3/5 6/10/5
f 10/11/6 12/4/6 11/6/6
f 12/12/7 2/1/7 1/3/7
f 11/14/8 1/1/8 3/13/8
f 3/13/8 5/10/8 7/3/8
f 7/3/8 9/9/8 11/14/8
o Cylinder.001
v -1.401934 0.043498 -0.415059
v -0.098152 1.591184 -0.415059
v -1.149518 -0.169139 -0.220803
v 0.154264 1.378546 -0.220803
v -1.149518 -0.169139 0.167711
v 0.154264 1.378546 0.167711
v -1.401934 0.043498 0.361968
v -0.098152 1.591184 0.361968
v -1.654350 0.256135 0.167711
v -0.350568 1.803821 0.167711
v -1.654350 0.256135 -0.220803
v -0.350568 1.803821 -0.220803
vn 0.3879 -0.3268 -0.8618
vn 0.7648 -0.6443 -0.0000
vn 0.3879 -0.3268 0.8618
vn -0.3879 0.3268 0.8618
vn 0.6443 0.7648 -0.0000
vn -0.7648 0.6443 -0.0000
vn -0.3879 0.3268 -0.8618
vn -0.6443 -0.7648 -0.0000
vt 0.500000 1.000000
vt 0.933013 0.000000
vt 0.500000 0.000000
vt 0.750000 1.000000
vt 0.250000 0.000000
vt 0.750000 0.000000
vt 0.933013 1.000000
vt 0.066987 0.000000
vt 0.066987 0.250000
vt 0.933013 0.250000
vt 0.250000 1.000000
vt 0.066987 1.000000
vt 0.933013 0.750000
vt 0.066987 0.750000
s 0
f 14/15/9 15/16/9 13/17/9
f 16/18/10 17/19/10 15/20/10
f 18/21/11 19/17/11 17/16/11
f 20/15/12 21/22/12 19/17/12
f 14/15/13 22/23/13 18/24/13
f 22/25/14 23/20/14 21/19/14
f 24/26/15 13/17/15 23/22/15
f 15/27/16 19/17/16 23/28/16
f 14/15/9 16/21/9 15/16/9
f 16/18/10 18/25/10 17/19/10
f 18/21/11 20/15/11 19/17/11
f 20/15/12 22/26/12 21/22/12
f 18/24/13 16/27/13 14/15/13
f 14/15/13 24/28/13 22/23/13
f 22/23/13 20/17/13 18/24/13
f 22/25/14 24/18/14 23/20/14
f 24/26/15 14/15/15 13/17/15
f 23/28/16 13/15/16 15/27/16
f 15/27/16 17/24/16 19/17/16
f 19/17/16 21/23/16 23/28/16
o Cylinder.002
v 0.391014 1.504850 0.159550
v 0.570038 -0.045548 1.490033
v 0.170793 1.284676 -0.067385
v 0.349817 -0.265722 1.263098
v -0.201832 1.284676 -0.017246
v -0.022807 -0.265722 1.313237
v -0.354235 1.504850 0.259828
v -0.175211 -0.045548 1.590311
v -0.134014 1.725025 0.486762
v 0.045010 0.174627 1.817246
v 0.238610 1.725025 0.436624
v 0.417635 0.174627 1.767107
vn 0.8159 -0.3194 -0.4819
vn -0.1008 -0.6546 -0.7492
vn -0.9143 -0.3194 -0.2491
vn -0.8159 0.3194 0.4819
vn 0.0873 -0.7560 0.6487
vn 0.1008 0.6546 0.7492
vn 0.9143 0.3194 0.2491
vn -0.0873 0.7560 -0.6487
vt 0.500000 1.000000
vt 0.933013 0.000000
vt 0.500000 0.000000
vt 0.750000 1.000000
vt 0.250000 0.000000
vt 0.750000 0.000000
vt 0.933013 1.000000
vt 0.066987 0.000000
vt 0.066987 0.250000
vt 0.933013 0.250000
vt 0.250000 1.000000
vt 0.066987 1.000000
vt 0.933013 0.750000
vt 0.066987 0.750000
s 0
f 26/29/17 27/30/17 25/31/17
f 28/32/18 29/33/18 27/34/18
f 30/35/19 31/31/19 29/30/19
f 32/29/20 33/36/20 31/31/20
f 26/29/21 34/37/21 30/38/21
f 34/39/22 35/34/22 33/33/22
f 36/40/23 25/31/23 35/36/23
f 27/41/24 31/31/24 35/42/24
f 26/29/17 28/35/17 27/30/17
f 28/32/18 30/39/18 29/33/18
f 30/35/19 32/29/19 31/31/19
f 32/29/20 34/40/20 33/36/20
f 30/38/21 28/41/21 26/29/21
f 26/29/21 36/42/21 34/37/21
f 34/37/21 32/31/21 30/38/21
f 34/39/22 36/32/22 35/34/22
f 36/40/23 26/29/23 25/31/23
f 35/42/24 25/29/24 27/41/24
f 27/41/24 29/38/24 31/31/24
f 31/31/24 33/37/24 35/42/24
o Cylinder.003
v 0.272184 -0.054595 -1.446179
v 0.448387 1.513898 -0.136669
v 0.120176 -0.271295 -1.166168
v 0.296378 1.297198 0.143342
v -0.252449 -0.271295 -1.116029
v -0.076246 1.297198 0.193481
v -0.473065 -0.054595 -1.345901
v -0.296863 1.513898 -0.036391
v -0.321057 0.162105 -1.625912
v -0.144854 1.730598 -0.316402
v 0.051568 0.162105 -1.676051
v 0.227770 1.730598 -0.366541
vn 0.9149 -0.3143 0.2534
vn 0.1020 -0.6443 0.7580
vn -0.8154 -0.3143 0.4862
vn -0.9149 0.3143 -0.2534
vn 0.0859 0.7648 0.6385
vn -0.1020 0.6443 -0.7580
vn 0.8154 0.3143 -0.4862
vn -0.0859 -0.7648 -0.6385
vt 0.500000 1.000000
vt 0.933013 0.000000
vt 0.500000 0.000000
vt 0.750000 1.000000
vt 0.250000 0.000000
vt 0.750000 0.000000
vt 0.933013 1.000000
vt 0.066987 0.000000
vt 0.066987 0.250000
vt 0.933013 0.250000
vt 0.250000 1.000000
vt 0.066987 1.000000
vt 0.933013 0.750000
vt 0.066987 0.750000
s 0
f 38/43/25 39/44/25 37/45/25
f 40/46/26 41/47/26 39/48/26
f 42/49/27 43/45/27 41/44/27
f 44/43/28 45/50/28 43/45/28
f 38/43/29 46/51/29 42/52/29
f 46/53/30 47/48/30 45/47/30
f 48/54/31 37/45/31 47/50/31
f 39/55/32 43/45/32 47/56/32
f 38/43/25 40/49/25 39/44/25
f 40/46/26 42/53/26 41/47/26
f 42/49/27 44/43/27 43/45/27
f 44/43/28 46/54/28 45/50/28
f 42/52/29 40/55/29 38/43/29
f 38/43/29 48/56/29 46/51/29
f 46/51/29 44/45/29 42/52/29
f 46/53/30 48/46/30 47/48/30
f 48/54/31 38/43/31 37/45/31
f 47/56/32 37/43/32 39/55/32
f 39/55/32 41/52/32 43/45/32
f 43/45/32 45/51/32 47/56/32
